<?xml version="1.0" encoding="utf-8"?>
<!-- Generator: Adobe Illustrator 25.4.1, SVG Export Plug-In . SVG Version: 6.00 Build 0)  -->
<svg version="1.1" id="Layer_1" xmlns="http://www.w3.org/2000/svg" xmlns:xlink="http://www.w3.org/1999/xlink" x="0px" y="0px"
	 viewBox="0 0 231.4 30" style="enable-background:new 0 0 231.4 30;" xml:space="preserve">
<style type="text/css">
	.st0{fill:#2D3339;}
</style>
<path class="st0" d="M35.3,25.5v-21h6v15.7h9.3v5.2H35.3V25.5z"/>
<path class="st0" d="M52.1,15c0-6.4,3.9-10.8,10.5-10.8S73.1,8.5,73.1,15c0,6.4-3.9,10.8-10.5,10.8C56,25.8,52.1,21.4,52.1,15z
	 M67.1,15c0-3.7-1.8-5.8-4.5-5.8c-2.7,0-4.5,2.2-4.5,5.8c0,3.7,1.8,5.8,4.5,5.8C65.3,20.8,67.1,18.7,67.1,15z"/>
<path class="st0" d="M75.1,15c0-6.4,3.9-10.8,10.5-10.8S96.1,8.5,96.1,15c0,6.4-3.9,10.8-10.5,10.8C79.1,25.8,75.1,21.4,75.1,15z
	 M90.1,15c0-3.7-1.8-5.8-4.5-5.8s-4.5,2.2-4.5,5.8c0,3.7,1.8,5.8,4.5,5.8C88.4,20.9,90.1,18.7,90.1,15z"/>
<path class="st0" d="M99,25.5v-21h8.2l4.5,14.9l4.5-14.9h8.2v21h-5.8V11.9h-0.3l-4.2,13.6H109l-4.2-13.6h-0.3v13.6
	C104.5,25.5,99,25.5,99,25.5z"/>
<path class="st0" d="M142,25.5l-1-3.7h-7.1l-1,3.7h-6.1l6.9-21h7.8l6.9,21C148.4,25.5,142,25.5,142,25.5z M135.1,17.3h4.6l-2.2-7.8
	h-0.3L135.1,17.3z"/>
<path class="st0" d="M150.6,25.5v-21h9.4c5,0,8.1,2.5,8.1,7.1c0,2.8-1.3,4.8-3.4,5.9l4.2,7.9h-6.6l-3.1-7h-2.5v7h-6.1V25.5z
	 M156.5,14.1h2.8c1.6,0,2.7-0.9,2.7-2.5s-1-2.5-2.7-2.5h-2.8V14.1z"/>
<path class="st0" d="M171.3,25.5v-21h6v21C177.3,25.5,171.3,25.5,171.3,25.5z"/>
<path class="st0" d="M181.1,25.5v-21h6.3l7.3,12.3h0.3c-0.1-1.9-0.2-3.5-0.2-5.2V4.5h5.8v21h-6.3L187,13.2h-0.3
	c0.1,1.9,0.1,3.4,0.1,5.2v7.1C186.8,25.5,181.1,25.5,181.1,25.5z"/>
<path class="st0" d="M218.3,25.5l-1-3.7h-7.1l-1,3.7h-6.1l6.9-21h7.8l6.9,21C224.7,25.5,218.3,25.5,218.3,25.5z M211.3,17.3h4.6
	l-2.2-7.8h-0.3L211.3,17.3z"/>
<path class="st0" d="M14.3,21.1v4.4h10.2c5.5,0,7.8-2.2,7.8-5.8c0-2.5-1.4-4.1-3.7-4.8v-0.3c1.7-0.7,2.8-2.2,2.8-4.6
	c0-3.8-2.8-5.5-7.3-5.5h-9.8v4.4h6h3.1c1.4,0,2.2,0.7,2.2,2s-0.8,2-2.2,2h-3.1v3.8h3.6c1.4,0,2.4,0.8,2.4,2.2s-1,2.2-2.4,2.2"/>
<g>
	<path class="st0" d="M17,15.7c-0.5-0.4-0.5-0.9-0.1-1.3c0,0,0.1-0.1,0-0.1c-0.2-0.1-0.3-0.3-0.5-0.4c0-0.1-0.1-0.1-0.2,0
		c-0.3,0.1-0.6,0.2-0.8,0.3c-0.8,0.5-0.7,1.3,0,1.8c0.4,0.2,0.8,0.3,1.3,0.4c0.2,0,0.4,0,0.5,0s0.2-0.2,0.2-0.2
		c0-0.1-0.1-0.1-0.1-0.1C17.3,15.9,17.2,15.8,17,15.7z"/>
	<path class="st0" d="M19.2,17.9c-0.1-0.1-0.1-0.1-0.2,0c-0.1,0.2-0.2,0.3-0.4,0.4c-0.1,0-0.1,0.1-0.1,0.2c0.1,0.4,0.2,0.7,0.4,1
		c0.3,0.3,0.6,0.5,1,0.4v-1.7C19.8,18.3,19.5,18.2,19.2,17.9z"/>
	<path class="st0" d="M19,10.7c-0.3,0.4-0.4,0.9-0.4,1.4c0,0.1,0,0.2,0,0.4c0,0.2,0.1,0.2,0.2,0.2s0.1-0.1,0.1-0.2s0.1-0.2,0.1-0.2
		c0.1-0.2,0.3-0.3,0.5-0.4s0.3-0.1,0.5,0v-1.7C19.7,10.1,19.3,10.3,19,10.7z"/>
	<path class="st0" d="M17.4,18.7c0.6-0.1,1.1-0.5,1.5-1c0.1-0.1,0.1-0.2,0-0.4c0-0.1,0-0.1-0.1,0s-0.3,0.1-0.5,0.2
		c-0.4,0.1-0.8-0.1-1-0.5c0-0.1-0.1-0.2,0-0.3c0-0.1,0-0.2-0.1-0.1c-0.1,0-0.3,0-0.4,0s-0.2-0.1-0.3,0.1c-0.2,0.3-0.3,0.6-0.4,0.9
		c-0.1,0.5,0.1,1,0.5,1.1C16.9,18.8,17.2,18.8,17.4,18.7z"/>
	<path class="st0" d="M17.2,14.1c0.1,0.1,0.2,0,0.3,0c0.1,0,0-0.1,0-0.2c-0.1-0.3-0.2-0.6-0.1-0.9s0.4-0.5,0.8-0.5
		c0.1,0,0.1,0,0.1-0.1c0-0.2,0-0.4,0-0.6c0-0.1,0-0.1-0.1-0.1c-0.3-0.2-0.6-0.3-0.9-0.4c-0.7-0.1-1.2,0.3-1.2,1.1
		c0,0.3,0.2,0.7,0.4,1.1C16.8,13.7,17,14,17.2,14.1z"/>
	<path class="st0" d="M14.8,14.3c0.5-0.5,0.8-0.6,1.3-0.8c0.1,0,0.1-0.1,0.1-0.2c-0.3-0.4-0.4-0.9-0.4-1.4c0-0.1,0-0.1-0.1-0.1
		c-0.3,0-0.6,0.1-0.8,0.2c-0.4,0.2-0.6,0.7-0.6,1.1C14.3,13.7,14.5,14,14.8,14.3z"/>
	<path class="st0" d="M19.1,20c-0.4-0.3-0.6-0.7-0.7-1.2c0-0.2,0-0.2-0.2-0.1c-0.4,0.2-0.8,0.4-1.2,0.3h-0.1c-0.1,0-0.1,0-0.1,0.1
		c0,0.2,0.1,0.3,0.1,0.5c0.2,0.4,0.4,0.7,0.9,0.8C18.3,20.7,18.7,20.5,19.1,20C19.2,20.1,19.1,20.1,19.1,20z"/>
	<path class="st0" d="M16.9,10.9c0.5,0,1,0.1,1.4,0.4c0.1,0,0.1,0.1,0.1-0.1c0.1-0.5,0.3-0.9,0.7-1.2c0,0,0.1-0.1,0-0.1
		c-0.3-0.3-0.7-0.5-1-0.5s-0.5,0-0.7,0.2C17,9.9,16.8,10.4,16.9,10.9C16.8,10.9,16.8,10.9,16.9,10.9z"/>
	<path class="st0" d="M16.2,16.6c0.1-0.1,0-0.1-0.1-0.1c-0.5-0.1-0.9-0.3-1.3-0.7c0,0-0.1-0.1-0.1,0c-0.3,0.3-0.5,0.7-0.5,1.1
		c0,0.2,0,0.4,0.2,0.6c0.3,0.4,0.8,0.6,1.3,0.6c0.1,0,0.1,0,0.1-0.1C15.7,17.5,15.9,17.1,16.2,16.6z"/>
	<path class="st0" d="M18.7,12.9c-0.1,0-0.2-0.1-0.4-0.1c-0.4-0.1-0.8,0.2-0.7,0.7c0,0.4,0.2,0.8,0.6,1c0.4,0.3,0.9,0.3,1.4,0.4
		c0-0.1,0-0.1-0.1-0.2c-0.1-0.3-0.3-0.5-0.4-0.8c-0.1-0.2-0.2-0.4-0.1-0.5C19,13.1,18.9,13,18.7,12.9z"/>
	<path class="st0" d="M19.9,15.4c-0.1,0.2-0.1,0.5-0.2,0.7c-0.1,0.3-0.2,0.7-0.5,0.9v0.1c0.1,0.2,0.1,0.5,0.3,0.6
		c0.2,0.2,0.4,0.2,0.6,0.2v-2.4C20,15.5,20,15.4,19.9,15.4z"/>
	<path class="st0" d="M19.5,12.3c-0.3,0.3-0.4,0.7-0.3,1.2s0.4,0.8,0.7,1.2c0-0.2,0.1-0.3,0.1-0.5c0-0.1,0.1-0.2,0.1-0.2v-1.8
		C19.8,12,19.6,12.1,19.5,12.3z"/>
	<path class="st0" d="M18.5,15.7c0.4-0.2,0.7-0.4,1-0.6c-0.2-0.1-0.4-0.1-0.6-0.2c-0.3-0.1-0.7-0.2-0.9-0.5
		c-0.2-0.2-0.3-0.2-0.5-0.1c-0.1,0.1-0.2,0.1-0.3,0.2c-0.3,0.3-0.3,0.7,0,0.9C17.6,15.8,18,15.9,18.5,15.7z"/>
	<path class="st0" d="M18.2,17.3c0.5,0,0.9-0.2,1.1-0.6s0.3-0.9,0.4-1.4c-0.1,0.1-0.3,0.2-0.4,0.2c-0.4,0.2-0.8,0.4-1.3,0.4
		c-0.1,0-0.1,0-0.1,0.1c-0.1,0.2-0.2,0.4-0.2,0.6C17.6,17,17.8,17.3,18.2,17.3z"/>
	<path class="st0" d="M19.9,15.2c-0.1,0-0.1-0.1-0.1-0.1c0-0.1,0-0.1,0.1-0.1s0.1,0.1,0.2,0.1v-0.2c0,0-0.1,0-0.2,0
		c-0.2,0-0.3,0.1-0.3,0.3c0,0.2,0.1,0.3,0.3,0.3c0.1,0,0.1,0,0.1,0v-0.3C20,15.1,20,15.2,19.9,15.2z"/>
</g>
</svg>
